<?xml version="1.0" encoding="UTF-8"?>
<!DOCTYPE svg PUBLIC "-//W3C//DTD SVG 1.1//EN" "http://www.w3.org/Graphics/SVG/1.1/DTD/svg11.dtd">
<!-- Creator: CorelDRAW X7 -->
<svg xmlns="http://www.w3.org/2000/svg" xml:space="preserve" width="100mm" height="100mm" version="1.1" style="shape-rendering:geometricPrecision; text-rendering:geometricPrecision; image-rendering:optimizeQuality; fill-rule:evenodd; clip-rule:evenodd"
viewBox="0 0 10000 10000"
 xmlns:xlink="http://www.w3.org/1999/xlink">
 <defs>
  <style type="text/css">
   <![CDATA[
    .fil0 {fill:black}
   ]]>
  </style>
 </defs>
 <g id="Camada_x0020_1">
  <metadata id="CorelCorpID_0Corel-Layer"/>
  <path class="fil0" d="M2441 3555c397,265 1390,1052 1848,1395 192,144 497,421 672,421 196,0 227,-54 408,-198l1958 -1557c51,-41 101,-84 153,-120l0 3711 -5039 0 0 -3652zm2341 -3555l440 0c360,15 717,65 1052,152 1274,330 2412,1194 3061,2329 225,393 401,804 517,1261 84,332 134,684 148,1040l0 440c-15,360 -65,717 -152,1052 -330,1274 -1194,2412 -2329,3061 -393,225 -804,401 -1261,517 -332,84 -684,134 -1040,148l-440 0c-360,-15 -717,-65 -1052,-152 -610,-158 -1118,-408 -1625,-758 -620,-429 -1334,-1244 -1638,-1955 -396,-928 -463,-1337 -463,-2350 0,-954 384,-1923 910,-2684 429,-620 1244,-1334 1955,-1638 294,-125 538,-229 877,-315 332,-84 684,-134 1040,-148zm-2067 2793l4492 0c-438,380 -1169,914 -1656,1313 -92,76 -175,144 -272,216 -80,59 -213,189 -299,209l-1403 -1077c-97,-77 -192,-138 -290,-218l-572 -443z"/>
 </g>
</svg>
