<?xml version="1.0" encoding="UTF-8"?>
<!DOCTYPE svg PUBLIC "-//W3C//DTD SVG 1.1//EN" "http://www.w3.org/Graphics/SVG/1.1/DTD/svg11.dtd">
<!-- Creator: CorelDRAW X7 -->
<svg xmlns="http://www.w3.org/2000/svg" xml:space="preserve" width="100mm" height="100mm" version="1.1" style="shape-rendering:geometricPrecision; text-rendering:geometricPrecision; image-rendering:optimizeQuality; fill-rule:evenodd; clip-rule:evenodd"
viewBox="0 0 10000 10000"
 xmlns:xlink="http://www.w3.org/1999/xlink">
 <defs>
  <style type="text/css">
   <![CDATA[
    .fil0 {fill:black}
   ]]>
  </style>
 </defs>
 <g id="Camada_x0020_1">
  <metadata id="CorelCorpID_0Corel-Layer"/>
  <path class="fil0" d="M3619 3981c87,-19 208,-12 314,-12 331,0 273,3 273,-373l13 -300c0,-218 17,-407 80,-570 82,-213 235,-417 432,-530 230,-131 392,-162 650,-162 69,0 80,-10 137,-13 102,-5 221,0 325,0 118,0 185,-13 299,-12 338,1 264,24 264,351l0 349c0,123 46,295 -46,343 -139,75 -575,-43 -753,71 -83,52 -125,151 -125,285 0,614 -69,536 311,536 501,0 624,-58 592,180 -17,123 -18,232 -31,356 -11,108 -31,250 -35,364 -10,241 -65,189 -589,189 -148,-1 -248,-19 -248,136 0,150 -4,369 11,500 12,112 -6,231 -11,324 -19,352 29,1828 -12,2011 -48,11 -79,25 -139,25l-974 0c-183,0 -151,-79 -151,-251l0 -2397c0,-165 22,-260 -37,-348 -116,0 -232,-1 -349,0 -138,0 -226,18 -226,-127l0 -824c0,-45 11,-70 25,-101zm1077 6019l609 0 76 -15c29,0 42,1 71,-2 346,-45 537,-59 898,-164 292,-85 407,-127 673,-238l205 -94c245,-124 717,-410 932,-603 106,-95 206,-167 319,-281l434 -477c90,-118 170,-225 257,-354 343,-515 586,-1085 724,-1710 22,-100 108,-659 106,-806 -10,-786 -18,-1138 -262,-1874 -116,-349 -384,-911 -610,-1212 -98,-131 -219,-311 -331,-430l-218 -232c-65,-78 -312,-299 -401,-372 -30,-24 -52,-41 -84,-66 -437,-343 -1048,-686 -1583,-838 -469,-134 -733,-196 -1218,-217l-63 -15 -434 0c-17,11 -1,6 -29,11l-247 16c-334,14 -936,162 -1243,279 -523,201 -1121,524 -1531,903l-156 144c-254,223 -516,540 -707,815 -107,154 -198,310 -286,476 -176,328 -184,380 -324,736l-137 476c-63,268 -98,515 -121,789 -4,48 2,101 -1,149 -3,59 -14,76 -14,150l30 570c146,1177 492,1894 1193,2764l373 388c543,524 1318,944 2056,1152 235,67 706,163 968,167l76 15z"/>
 </g>
</svg>
