<?xml version="1.0" encoding="UTF-8"?>
<!DOCTYPE svg PUBLIC "-//W3C//DTD SVG 1.1//EN" "http://www.w3.org/Graphics/SVG/1.1/DTD/svg11.dtd">
<!-- Creator: CorelDRAW X7 -->
<svg xmlns="http://www.w3.org/2000/svg" xml:space="preserve" width="100mm" height="100mm" version="1.1" style="shape-rendering:geometricPrecision; text-rendering:geometricPrecision; image-rendering:optimizeQuality; fill-rule:evenodd; clip-rule:evenodd"
viewBox="0 0 10000 10000"
 xmlns:xlink="http://www.w3.org/1999/xlink">
 <defs>
  <style type="text/css">
   <![CDATA[
    .fil0 {fill:black}
   ]]>
  </style>
 </defs>
 <g id="Camada_x0020_1">
  <metadata id="CorelCorpID_0Corel-Layer"/>
  <g id="_482634160">
   <path class="fil0" d="M2165 7816c-2,-8 55,-153 58,-164 19,-71 29,-114 49,-184l300 -1090c32,-126 4,-110 -92,-303 -44,-91 -103,-237 -134,-335 -264,-828 -163,-1732 279,-2470 47,-79 99,-151 151,-220 194,-257 216,-275 432,-467 356,-318 830,-573 1302,-671 942,-196 1931,35 2604,661 45,42 63,47 108,88l250 277c378,482 653,1088 653,1730 0,666 -38,824 -282,1418 -60,145 -173,310 -261,442l-331 391c-118,119 -245,218 -384,319 -702,508 -1664,662 -2516,423 -115,-33 -203,-63 -305,-105 -335,-138 -236,-169 -489,-93l-1392 353zm2636 -7816l424 0c340,14 679,63 1014,148 869,221 1673,684 2301,1312 405,405 735,876 998,1424 356,740 462,1390 462,2292 0,1315 -776,2880 -1777,3652 -502,387 -895,663 -1536,887 -157,54 -296,99 -464,141 -557,139 -821,144 -1372,144l-27 0c-688,0 -1491,-241 -1953,-468 -327,-161 -468,-243 -762,-450 -234,-165 -446,-339 -649,-542 -214,-214 -518,-577 -678,-846 -39,-65 -74,-111 -111,-181 -163,-301 -269,-492 -386,-826 -239,-687 -285,-1100 -285,-1843 0,-379 66,-753 144,-1067 294,-1175 994,-2162 1974,-2870 234,-170 508,-315 766,-445 126,-64 289,-128 429,-177 481,-167 983,-264 1488,-285z"/>
   <path class="fil0" d="M4141 3438c261,0 226,-3 357,326l170 396c0,208 -254,305 -254,430 0,111 334,493 445,591 88,78 200,157 305,221 406,246 410,201 653,-132 109,-149 137,-116 505,69 67,33 120,60 182,91 165,81 156,46 156,215 0,87 -29,198 -59,253 -40,72 -93,117 -164,168 -159,114 -280,164 -519,164 -347,0 -960,-309 -1207,-512 -510,-421 -1341,-1309 -961,-1968 74,-127 194,-312 391,-312zm-1446 1230c0,538 52,928 324,1376 48,79 109,145 92,230l-240 855 701 -178c308,-92 216,-66 393,22 48,24 89,44 143,71 724,365 1565,299 2272,-78 682,-363 1257,-1242 1257,-2044 0,-471 -35,-776 -241,-1185 -425,-843 -1256,-1413 -2220,-1413 -627,0 -1301,272 -1714,689 -424,428 -767,1013 -767,1655z"/>
  </g>
 </g>
</svg>
