<?xml version="1.0" encoding="UTF-8"?>
<!DOCTYPE svg PUBLIC "-//W3C//DTD SVG 1.1//EN" "http://www.w3.org/Graphics/SVG/1.1/DTD/svg11.dtd">
<!-- Creator: CorelDRAW X7 -->
<svg xmlns="http://www.w3.org/2000/svg" xml:space="preserve" width="100mm" height="100mm" version="1.1" style="shape-rendering:geometricPrecision; text-rendering:geometricPrecision; image-rendering:optimizeQuality; fill-rule:evenodd; clip-rule:evenodd"
viewBox="0 0 10000 10000"
 xmlns:xlink="http://www.w3.org/1999/xlink">
 <defs>
  <style type="text/css">
   <![CDATA[
    .fil0 {fill:black}
   ]]>
  </style>
 </defs>
 <g id="Camada_x0020_1">
  <metadata id="CorelCorpID_0Corel-Layer"/>
  <g id="_600828056">
   <path class="fil0" d="M1814 6578l0 -3168c0,-683 538,-1306 1152,-1511 234,-78 494,-103 804,-103l2459 0c659,0 985,117 1357,417 284,229 599,696 599,1197l0 3168c0,834 -783,1615 -1694,1615l-2983 0c-484,0 -931,-233 -1175,-479 -289,-293 -519,-677 -519,-1136zm-1814 -1695c0,926 139,1510 463,2221 926,2031 3185,3300 5640,2779 391,-83 981,-301 1327,-508 357,-213 414,-251 743,-508 594,-461 1021,-1085 1356,-1750 471,-937 602,-2220 333,-3287l-217 -691c-169,-423 -490,-984 -791,-1327l-283 -322c-84,-106 -519,-455 -654,-556 -674,-505 -1778,-934 -2716,-934l-403 0c-1000,0 -2158,470 -2877,1056 -60,49 -107,91 -164,137 -589,476 -1116,1234 -1397,1932 -206,510 -360,1185 -360,1758z"/>
   <path class="fil0" d="M3246 5105c0,-372 -1,-521 174,-874 86,-172 197,-337 339,-468 561,-520 1297,-636 1992,-339 526,225 1002,870 1002,1439l0 242c0,634 -491,1265 -1053,1488 -674,267 -1423,143 -1916,-332 -302,-291 -538,-716 -538,-1156zm3104 -1715c0,-175 7,-307 158,-427 524,-418 1089,328 664,726 -79,74 -192,132 -322,139 -240,15 -500,-199 -500,-438zm-4052 384l0 2421c0,243 40,434 112,614 66,166 182,337 296,451 74,73 109,107 194,169 222,164 524,279 829,279l2541 0c783,0 1431,-653 1431,-1513l0 -2421c0,-398 -125,-699 -357,-975 -129,-154 -34,-59 -194,-190 -37,-30 -81,-63 -115,-86 -278,-177 -556,-243 -927,-243l-2217 0c-927,0 -1593,606 -1593,1494z"/>
   <path class="fil0" d="M3729 4984c0,971 1031,1522 1782,1158 170,-83 247,-129 374,-252l143 -159c361,-504 314,-1169 -116,-1600 -821,-821 -2183,-220 -2183,853z"/>
  </g>
 </g>
</svg>
